<svg width="180" height="201" viewBox="0 0 180 201" fill="none" xmlns="http://www.w3.org/2000/svg">
<path fill-rule="evenodd" clip-rule="evenodd" d="M116.992 26.8479C103.663 33.0951 93.8546 44.5006 86.9629 58.0501C76.5555 78.513 72.7932 103.869 73.7022 123.98C74.2722 136.62 78.8831 144.981 82.1515 157.14C82.2836 157.633 81.9919 158.14 81.4994 158.272C81.0091 158.404 80.5004 158.112 80.3705 157.62C77.0638 145.318 72.4356 136.85 71.8581 124.063C70.9367 103.671 74.7657 77.9636 85.3181 57.2133C92.3996 43.2899 102.51 31.5971 116.209 25.1767C116.67 24.9602 117.219 25.1575 117.435 25.619C117.652 26.0804 117.454 26.6315 116.992 26.8479Z" fill="#25265eab"/>
<path fill-rule="evenodd" clip-rule="evenodd" d="M80.4297 159.961C80.4176 159.917 80.3432 159.625 80.255 159.388C79.895 158.402 79.1073 156.735 77.989 154.69C74.2297 147.835 66.7504 136.764 58.6928 133.138C58.228 132.928 58.0221 132.382 58.2314 131.917C58.4406 131.453 58.9855 131.244 59.4502 131.453C67.8341 135.226 75.6969 146.671 79.6067 153.804C80.1297 154.76 80.5856 155.638 80.9602 156.41C81.3031 153.812 81.5784 151.21 81.8251 148.598C82.5323 141.08 84.7016 134.722 88.5621 128.166C88.819 127.727 89.3867 127.581 89.8245 127.84C90.263 128.096 90.4098 128.664 90.1507 129.102C86.4363 135.413 84.3437 141.533 83.662 148.77C83.339 152.183 82.9661 155.584 82.4659 158.975C82.4162 159.312 82.2772 160.188 82.2385 160.307C82.0182 160.99 81.4102 160.968 81.2763 160.956C81.2115 160.951 80.4122 160.841 80.4297 159.961ZM82.2746 159.931C82.2736 159.955 82.2749 159.98 82.2731 160.007C82.2756 159.985 82.2743 159.96 82.2746 159.931Z" fill="#25265eab"/>
<path fill-rule="evenodd" clip-rule="evenodd" d="M63.0544 171.332C62.1997 173.579 61.3345 175.795 60.5457 178.067C60.3743 178.555 60.6301 179.085 61.1155 179.254C61.6035 179.425 62.1364 179.167 62.3052 178.681C63.0913 176.423 63.9487 174.226 64.7981 171.994C64.9801 171.511 64.7375 170.973 64.26 170.791C63.7772 170.609 63.2365 170.849 63.0544 171.332Z" fill="black"/>
<path fill-rule="evenodd" clip-rule="evenodd" d="M82.6903 168.175C85.315 175.305 88.2985 182.299 91.0736 189.368C91.2636 189.848 91.8044 190.083 92.2818 189.896C92.7619 189.706 92.9993 189.168 92.812 188.685C90.0395 181.629 87.0586 174.649 84.4418 167.531C84.2624 167.046 83.727 166.801 83.2442 166.977C82.7588 167.157 82.5135 167.692 82.6903 168.175Z" fill="black"/>
<path fill-rule="evenodd" clip-rule="evenodd" d="M103.282 150.113C108.487 153.877 113.805 157.501 118.967 161.324C119.381 161.627 119.964 161.54 120.27 161.129C120.579 160.714 120.489 160.129 120.078 159.823C114.907 155.998 109.584 152.368 104.371 148.601C103.955 148.3 103.372 148.393 103.071 148.809C102.768 149.229 102.863 149.809 103.282 150.113Z" fill="black"/>
</svg>
