<svg width="264" height="17" viewBox="0 0 264 17" fill="none" xmlns="http://www.w3.org/2000/svg">
<path fill-rule="evenodd" clip-rule="evenodd" d="M112.681 1.5359C100.323 2.06224 88.1113 2.70942 76.2024 3.41696C59.3441 4.41786 42.4923 5.45329 25.742 7.0927C20.4694 7.61041 15.1151 7.93828 9.87542 8.58542C6.5863 8.99095 2.22501 9.56898 1.65265 9.68978C1.35328 9.75881 1.22267 9.86245 1.18047 9.89696C0.88374 10.1386 0.937883 10.3714 1.10537 10.5526C1.17263 10.6303 1.34271 10.8202 1.81484 10.8461C33.3898 12.6149 65.677 9.16352 97.2902 8.80113C152.113 8.17988 208.598 10.6476 262.986 16.0318C263.46 16.075 263.922 15.8592 263.988 15.5399C264.067 15.2293 263.724 14.9273 263.249 14.8842C208.769 9.49134 152.192 7.01495 97.2638 7.64483C67.8016 7.98135 37.7577 11.01 8.2546 9.97459C8.93246 9.88831 9.59718 9.80199 10.2038 9.72433C15.4224 9.07719 20.7543 8.75796 26.0058 8.24025C42.7204 6.60084 59.5379 5.56542 76.3739 4.57314C97.2639 3.33064 119.064 2.2607 141.035 1.76025C148.895 1.8379 156.729 1.91559 164.563 2.01051C181.509 2.21759 198.535 2.82159 215.443 3.63267C220.533 3.88289 225.624 4.14173 230.714 4.36607C232.402 4.44373 236.755 4.66803 237.361 4.65077C238.113 4.63351 238.258 4.21938 238.271 4.15036C238.311 3.99504 238.284 3.77932 237.915 3.59812C237.875 3.57223 237.638 3.48589 237.111 3.43412C206.369 0.379637 173.544 -0.129364 141.062 0.604058C106.799 0.284804 72.4043 0.146684 38.2286 0C37.7393 0 37.3397 0.258893 37.3357 0.578147C37.3331 0.897401 37.7274 1.1563 38.2167 1.16493C62.9628 1.26847 87.8343 1.37196 112.681 1.5359Z" fill="#6501E5"/>
</svg>
