<svg width="111" height="111" viewBox="0 0 111 111" fill="none" xmlns="http://www.w3.org/2000/svg">
<g clip-path="url(#clip0_2942_79858)">
<path fill-rule="evenodd" clip-rule="evenodd" d="M65.7588 4.36761C82.3424 38.3921 64.8307 72.357 38.1789 95.5424C37.7219 95.9414 37.6723 96.6374 38.0714 97.0944C38.4705 97.5514 39.1663 97.601 39.6233 97.2019C67.0228 73.3688 84.7839 38.3801 67.7352 3.40266C67.4707 2.85721 66.8122 2.63089 66.2645 2.89695C65.719 3.16145 65.4928 3.81987 65.7588 4.36761Z" fill="#25265eab"/>
<path fill-rule="evenodd" clip-rule="evenodd" d="M39.4015 95.9363C40.0476 94.1146 40.8835 91.8373 40.9709 91.5761C43.3376 84.4977 44.4795 77.4316 44.6282 69.954C44.6411 69.3471 44.1568 68.844 43.5498 68.8312C42.9429 68.8184 42.4399 69.3026 42.4271 69.9095C42.2852 77.1607 41.1796 84.0139 38.883 90.8798C38.7494 91.28 36.8669 96.3982 36.564 97.4617C36.4377 97.8974 36.5017 98.1831 36.5232 98.2491C36.6239 98.6038 36.8361 98.7917 37.0267 98.9037C37.2429 99.0284 37.6499 99.1474 38.1749 98.9909C38.7237 98.8249 39.7721 98.204 40.0494 98.0686C44.2391 96.0376 48.7382 93.4058 53.3869 91.8212C57.82 90.3097 62.3948 89.75 66.9531 91.7723C67.5078 92.019 68.1589 91.7665 68.4056 91.2118C68.6523 90.6571 68.3998 90.006 67.8451 89.7593C62.7483 87.4993 57.632 88.0486 52.6779 89.7374C48.0568 91.3132 43.578 93.8909 39.4015 95.9363Z" fill="#25265eab"/>
</g>
<defs>
<clipPath id="clip0_2942_79858">
<rect width="79.6546" height="79.6546" fill="white" transform="translate(0 44.8828) rotate(-34.2966)"/>
</clipPath>
</defs>
</svg>
